<svg width="8" height="16" viewBox="0 0 8 16" fill="none" xmlns="http://www.w3.org/2000/svg">
<path d="M6.23077 0.00398295C6.56236 0.00921974 6.89394 0.0144565 7.23558 0.019852C7.61397 0.0299515 7.61397 0.0299515 8 0.0402551C8 0.99784 8 1.95542 8 2.94203C7.18769 3.03779 6.37538 3.13354 5.53846 3.2322C5.43692 3.99827 5.33538 4.76434 5.23077 5.55362C6.04308 5.55362 6.85538 5.55362 7.69231 5.55362C7.69231 6.41545 7.69231 7.27727 7.69231 8.16522C6.88 8.16522 6.06769 8.16522 5.23077 8.16522C5.23077 10.7507 5.23077 13.3362 5.23077 16C4.11385 16 2.99692 16 1.84615 16C1.84615 13.4145 1.84615 10.829 1.84615 8.16522C1.23692 8.16522 0.627692 8.16522 0 8.16522C0 7.20763 0 6.25005 0 5.26344C0.609231 5.26344 1.21846 5.26344 1.84615 5.26344C1.83188 5.04986 1.8176 4.83627 1.80288 4.61621C1.71178 2.29327 1.71178 2.29327 2.38462 1.18283C3.66368 0.144109 4.5416 -0.0306477 6.23077 0.00398295Z" fill="#F9FBFC"/>
</svg>
